<?xml version="1.0" standalone="no"?>
<!DOCTYPE svg PUBLIC "-//W3C//DTD SVG 20010904//EN"
 "http://www.w3.org/TR/2001/REC-SVG-20010904/DTD/svg10.dtd">
<svg version="1.0" xmlns="http://www.w3.org/2000/svg"
 width="640.000000pt" height="640.000000pt" viewBox="0 0 640.000000 640.000000"
 preserveAspectRatio="xMidYMid meet">

<g transform="translate(0.000000,640.000000) scale(0.100000,-0.100000)"
fill="#000000" stroke="none">
<path d="M0 3200 l0 -3200 3200 0 3200 0 0 3200 0 3200 -3200 0 -3200 0 0
-3200z m4125 1056 c-33 -161 -95 -300 -192 -431 -64 -86 -181 -202 -256 -253
-46 -32 -46 -32 -40 -80 4 -37 0 -60 -16 -97 -23 -52 -70 -119 -78 -112 -2 3
11 26 30 51 45 58 61 106 54 165 l-6 46 91 70 c247 192 399 469 416 760 7 107
7 108 10 35 2 -41 -4 -109 -13 -154z m-29 185 c-8 -13 -336 -59 -336 -47 0 6
65 25 145 42 70 14 199 18 191 5z m-456 -65 c0 -2 -7 -7 -16 -10 -8 -3 -12 -2
-9 4 6 10 25 14 25 6z m368 -347 c6 -14 -76 -145 -140 -224 -95 -119 -265
-253 -417 -329 l-53 -27 -63 58 c-34 32 -63 62 -64 68 0 5 34 45 76 87 l77 78
-21 21 -21 21 -81 -78 -82 -78 -66 66 -66 66 48 84 c122 211 281 375 470 483
l77 44 161 -166 c89 -91 163 -169 165 -174z m-668 126 c-41 -41 -77 -75 -79
-75 -3 0 28 34 69 75 41 41 77 75 79 75 3 0 -28 -34 -69 -75z m-135 -155 c-10
-11 -22 -20 -28 -20 -5 0 1 9 14 20 31 25 37 25 14 0z m-235 -63 c0 -2 -24
-23 -52 -46 l-53 -43 50 46 c48 44 55 50 55 43z m114 -116 c4 -5 -2 -7 -13 -4
-34 9 -151 -62 -266 -162 -74 -63 -106 -82 -46 -25 139 129 304 226 325 191z
m-234 -4 c0 -2 -12 -14 -27 -28 l-28 -24 24 28 c23 25 31 32 31 24z m-76 -92
c-14 -19 -29 -35 -31 -35 -5 0 7 18 36 53 26 31 23 18 -5 -18z m394 -152 l-32
-33 -49 49 -50 49 18 47 18 46 64 -62 63 -63 -32 -33z m-113 -1 c-3 -3 -6 -3
-7 -1 -2 2 -14 18 -28 34 l-25 30 32 -29 c18 -16 31 -32 28 -34z m42 -34 c18
-20 16 -22 -71 -105 -85 -82 -88 -85 -70 -104 17 -19 16 -19 -25 -19 -55 0
-114 -31 -141 -75 -22 -35 -47 -49 -36 -19 3 9 6 19 6 24 0 4 15 26 33 47 17
22 43 55 57 73 52 70 75 96 124 144 28 27 50 52 49 55 -4 15 57 -2 74 -21z
m187 -86 c-47 -3 -60 1 -80 19 l-24 23 32 34 33 34 48 -54 48 -53 -57 -3z
m-294 94 c0 -2 -12 -11 -27 -20 l-28 -17 24 20 c23 21 31 25 31 17z m-127
-108 c-38 -40 -82 -92 -98 -115 -15 -24 -33 -43 -39 -43 -7 0 -8 3 -1 8 6 4
22 23 34 42 23 34 161 180 170 180 2 0 -27 -33 -66 -72z m314 21 c8 -8 6 -20
-8 -43 -10 -17 -19 -40 -19 -52 0 -11 -16 -39 -35 -62 l-36 -41 -37 21 c-20
12 -39 23 -41 25 -6 4 150 163 159 163 3 0 11 -5 17 -11z m1857 -31 c13 -19
16 -56 14 -228 l-2 -205 -6 213 c-5 196 -7 215 -24 228 -11 8 -15 14 -8 14 6
0 18 -10 26 -22z m-3605 -16 c29 -14 36 -23 36 -46 0 -42 -25 -54 -70 -33 -51
24 -91 22 -120 -8 -24 -23 -25 -30 -25 -142 0 -132 9 -157 59 -168 17 -3 44 1
69 10 58 24 87 17 87 -19 0 -49 -41 -71 -135 -71 -85 0 -112 12 -154 69 -18
24 -21 45 -24 161 -3 116 -1 140 16 178 22 48 53 75 105 88 43 11 113 3 156
-19z m2036 17 c4 -6 5 -12 2 -15 -7 -7 -37 7 -37 17 0 13 27 11 35 -2z m1533
-5 c22 -15 22 -19 22 -243 0 -163 -3 -230 -12 -239 -19 -19 -66 -15 -78 7 -6
12 -10 107 -10 240 0 216 0 220 22 235 12 9 25 16 28 16 3 0 16 -7 28 -16z
m-3522 -16 l19 -23 -25 20 c-14 11 -27 21 -29 22 -2 2 0 3 6 3 5 0 18 -10 29
-22z m1939 3 c88 -40 111 -97 103 -264 -5 -110 -26 -156 -91 -189 -57 -29
-196 -38 -232 -14 l-25 16 0 220 c0 185 2 221 16 234 23 24 175 22 229 -3z
m1952 -7 c77 -38 93 -78 93 -225 0 -136 -18 -178 -89 -218 -58 -32 -198 -42
-236 -17 l-25 16 0 217 c0 265 -5 253 120 253 72 0 94 -4 137 -26z m53 0 c17
-15 37 -39 45 -55 25 -47 17 -46 -14 3 -17 26 -42 54 -58 62 -15 8 -23 15 -16
16 6 0 25 -12 43 -26z m-2800 -24 c14 -14 20 -33 20 -65 l0 -45 40 0 c29 0 42
-5 50 -20 18 -34 -4 -60 -50 -60 l-40 0 0 -79 c0 -87 6 -98 60 -103 30 -3 35
-7 38 -32 4 -36 -10 -46 -68 -46 -112 0 -130 38 -130 265 0 94 4 175 8 181 7
10 28 21 45 23 4 1 16 -8 27 -19z m39 -20 c0 -10 -3 -8 -9 5 -12 27 -12 43 0
25 5 -8 9 -22 9 -30z m-1173 -35 c-9 -14 -24 -25 -34 -24 -13 0 -12 2 5 9 12
5 24 18 28 30 4 12 9 19 12 16 3 -3 -2 -17 -11 -31z m-192 -14 c-10 -10 -21
-17 -23 -15 -6 6 20 34 32 34 6 0 2 -8 -9 -19z m111 -9 c-3 -3 -11 0 -18 7 -9
10 -8 11 6 5 10 -3 15 -9 12 -12z m496 -19 c13 -16 12 -17 -3 -4 -10 7 -18 15
-18 17 0 8 8 3 21 -13z m484 3 c56 -24 75 -66 75 -169 0 -146 -37 -194 -146
-185 l-53 5 -3 -70 c-3 -80 -18 -99 -62 -79 l-26 12 0 199 c0 136 -4 209 -12
227 -11 23 -10 28 10 45 18 14 28 16 45 8 16 -7 32 -6 57 5 44 19 72 20 115 2z
m40 4 c3 -6 -1 -7 -9 -4 -18 7 -21 14 -7 14 6 0 13 -4 16 -10z m592 -9 c60
-28 73 -60 73 -176 0 -94 0 -96 -34 -132 -30 -33 -39 -37 -95 -41 -72 -5 -111
8 -146 50 -23 27 -25 38 -25 124 0 128 17 160 99 185 44 13 84 9 128 -10z
m812 -20 c-2 -6 -10 2 -17 17 -11 25 -11 25 4 10 9 -9 15 -21 13 -27z m268 14
c46 -31 63 -73 63 -160 0 -139 -46 -189 -167 -183 -111 7 -148 59 -141 200 5
91 22 121 81 149 48 23 124 20 164 -6z m54 -11 c9 -11 2 -9 -18 6 -18 13 -33
25 -33 27 0 8 38 -17 51 -33z m304 22 c57 -24 75 -66 75 -176 0 -142 -35 -186
-143 -178 l-47 3 0 -56 c0 -75 -24 -108 -66 -94 l-29 10 -6 210 c-3 116 -9
220 -13 231 -10 29 28 58 56 43 13 -7 31 -5 61 5 54 19 70 19 112 2z m75 -29
c10 -20 10 -21 -4 -4 -8 10 -23 25 -33 33 -17 14 -16 14 4 4 13 -6 27 -20 33
-33z m255 33 c60 -14 85 -59 45 -80 -14 -8 -32 -8 -60 0 -29 8 -46 8 -61 0
-30 -17 -19 -32 42 -57 118 -47 146 -148 57 -204 -45 -28 -169 -23 -200 8 -17
17 -18 24 -8 43 11 20 16 21 81 15 59 -6 70 -5 75 10 9 22 -10 38 -68 59 -59
22 -88 57 -88 106 0 82 78 125 185 100z m84 -34 c-2 -2 -13 8 -23 22 l-19 27
24 -22 c12 -12 21 -24 18 -27z m-3131 25 c8 -5 12 -21 10 -37 -2 -24 -8 -29
-33 -32 -80 -7 -75 1 -75 -135 0 -82 -4 -127 -12 -135 -18 -18 -66 -15 -77 6
-5 9 -10 87 -12 172 -4 153 -4 155 18 158 12 2 30 -1 40 -6 13 -7 26 -6 43 4
28 15 78 18 98 5z m142 -6 c6 -8 26 -57 44 -109 l32 -95 29 96 c15 52 35 101
42 109 22 22 62 17 74 -8 8 -19 -2 -56 -50 -196 -33 -95 -70 -191 -82 -212
-26 -46 -72 -73 -118 -68 -65 6 -68 64 -4 80 21 5 36 19 47 42 16 34 16 36
-39 175 -30 77 -55 149 -55 159 0 39 55 58 80 27z m1267 -3 c-8 -9 -23 -31
-31 -47 -11 -21 -16 -25 -16 -12 0 23 37 77 52 77 6 0 4 -8 -5 -18z m653 -2
c18 -33 -4 -60 -48 -60 -20 0 -42 -4 -49 -8 -8 -5 -13 -48 -15 -131 -2 -100
-6 -126 -19 -134 -22 -14 -67 -1 -73 21 -2 9 -6 85 -8 167 l-3 150 28 3 c16 2
34 -1 40 -6 8 -7 20 -6 37 3 39 22 97 19 110 -5z m1687 -147 c-2 -32 -3 -6 -3
57 0 63 1 89 3 58 2 -32 2 -84 0 -115z m-3717 88 c-6 -12 -16 -21 -22 -21 -6
0 -4 8 5 18 10 10 18 29 18 43 2 23 2 23 6 2 2 -12 -1 -31 -7 -42z m365 20 c3
-5 1 -12 -5 -16 -5 -3 -10 1 -10 9 0 18 6 21 15 7z m345 -26 c0 -5 -5 -3 -10
5 -5 8 -10 20 -10 25 0 6 5 3 10 -5 5 -8 10 -19 10 -25z m1330 -7 c-12 -10
-27 -18 -34 -17 -6 0 -1 5 11 11 13 6 26 20 29 32 5 15 9 17 12 7 3 -8 -5 -23
-18 -33z m737 10 c-3 -8 -6 -5 -6 6 -1 11 2 17 5 13 3 -3 4 -12 1 -19z m313
-13 c-7 -8 -16 -15 -21 -15 -5 0 -1 8 9 18 20 22 31 19 12 -3z m-2766 -79
c-14 -42 -28 -75 -30 -73 -2 2 8 38 22 81 14 42 28 75 30 73 2 -2 -8 -38 -22
-81z m2646 80 c0 -3 -4 -8 -10 -11 -5 -3 -10 -1 -10 4 0 6 5 11 10 11 6 0 10
-2 10 -4z m-3053 -12 c-3 -3 -12 -4 -19 -1 -8 3 -5 6 6 6 11 1 17 -2 13 -5z
m2053 2 c0 -2 -7 -6 -15 -10 -8 -3 -15 -1 -15 4 0 6 7 10 15 10 8 0 15 -2 15
-4z m-1046 -31 c-25 -19 -40 -19 -24 0 7 8 20 15 28 15 13 0 12 -3 -4 -15z
m39 -90 c-59 -53 -69 -41 -16 20 41 46 49 51 51 34 2 -14 -9 -32 -35 -54z
m2118 58 c13 -16 12 -17 -3 -4 -17 13 -22 21 -14 21 2 0 10 -8 17 -17z m-220
-30 c13 -16 12 -17 -3 -4 -17 13 -22 21 -14 21 2 0 10 -8 17 -17z m247 -18
c-3 -3 -9 2 -12 12 -6 14 -5 15 5 6 7 -7 10 -15 7 -18z m-1360 -63 c-22 -43
-83 -92 -113 -91 -5 0 4 7 20 16 49 25 85 65 97 107 7 21 14 33 16 27 2 -7 -7
-33 -20 -59z m-755 7 c-6 -6 -18 -7 -27 -3 -16 6 -15 9 6 29 22 21 23 21 26 2
2 -10 0 -23 -5 -28z m2703 -7 c-17 -33 -71 -82 -89 -82 -7 0 2 9 19 20 17 11
42 40 55 65 13 25 25 41 27 36 2 -5 -4 -23 -12 -39z m-917 -14 c-10 -39 -60
-88 -87 -88 -10 1 -3 7 13 14 34 15 58 46 69 90 4 15 9 26 11 24 3 -2 0 -20
-6 -40z m-2013 -15 c-3 -4 -6 -1 -6 5 0 24 -31 11 -76 -33 -25 -25 -53 -45
-62 -44 -13 0 -12 2 4 9 11 4 33 23 49 42 35 42 76 61 88 41 5 -8 6 -17 3 -20z
m557 -11 c-10 -14 -30 -32 -43 -41 -15 -9 -9 -1 13 20 20 20 37 45 38 55 0 12
2 14 6 5 3 -7 -3 -25 -14 -39z m1072 2 c-16 -25 -71 -64 -90 -64 -5 0 8 10 30
23 24 13 46 36 55 56 8 18 16 28 18 22 2 -7 -4 -23 -13 -37z m715 20 c0 -22
-64 -84 -86 -84 -12 0 -6 7 16 18 19 10 42 33 50 50 17 36 20 38 20 16z
m-3700 -24 c12 -16 19 -30 16 -30 -2 0 -14 14 -26 30 -12 17 -19 30 -16 30 2
0 14 -13 26 -30z m860 -7 c-11 -17 -11 -17 -6 0 3 10 6 24 7 30 0 9 2 9 5 0 3
-7 0 -20 -6 -30z m-552 5 c-8 -12 -25 -29 -39 -37 -17 -11 -14 -5 11 21 40 42
48 47 28 16z m3552 -27 c-6 -11 -20 -26 -33 -32 -18 -10 -17 -7 6 14 15 14 28
36 28 49 1 16 3 18 6 6 2 -9 -1 -26 -7 -37z m-2514 -24 c-36 -44 -72 -77 -82
-77 -4 0 19 25 49 56 31 31 54 61 50 67 -3 6 -1 7 6 3 8 -5 0 -21 -23 -49z
m285 36 c12 -14 12 -15 0 -9 -9 6 -37 -15 -92 -70 -43 -43 -79 -74 -79 -69 0
7 149 165 156 165 1 0 8 -8 15 -17z m1070 0 c13 -16 12 -17 -3 -4 -17 13 -22
21 -14 21 2 0 10 -8 17 -17z m-2231 -28 c-7 -8 -17 -15 -22 -15 -5 0 -2 7 6
16 9 8 16 21 17 27 0 8 2 8 6 -1 3 -7 -1 -19 -7 -27z m1555 -13 c-6 -6 -34 11
-39 24 -4 11 0 10 18 -3 13 -10 23 -19 21 -21z m500 19 c-3 -6 -16 -16 -28
-22 -20 -11 -20 -9 3 13 25 24 38 29 25 9z m-2154 -8 c13 -16 12 -17 -3 -4
-10 7 -18 15 -18 17 0 8 8 3 21 -13z m470 -10 c-12 -20 -14 -14 -5 12 4 9 9
14 11 11 3 -2 0 -13 -6 -23z m1580 10 c13 -16 12 -17 -3 -4 -17 13 -22 21 -14
21 2 0 10 -8 17 -17z m-2184 -9 c-3 -3 -12 -4 -19 -1 -8 3 -5 6 6 6 11 1 17
-2 13 -5z m1187 -7 c-12 -6 -57 -38 -100 -69 -44 -32 -83 -57 -89 -57 -5 0 1
8 15 17 13 9 54 40 90 69 36 28 74 52 85 52 19 1 19 0 -1 -12z m413 7 c-3 -3
-12 -4 -19 -1 -8 3 -5 6 6 6 11 1 17 -2 13 -5z m360 0 c-3 -3 -12 -4 -19 -1
-8 3 -5 6 6 6 11 1 17 -2 13 -5z m1940 0 c-3 -3 -12 -4 -19 -1 -8 3 -5 6 6 6
11 1 17 -2 13 -5z m-2637 -14 c0 -5 -2 -10 -4 -10 -3 0 -8 5 -11 10 -3 6 -1
10 4 10 6 0 11 -4 11 -10z m-684 -48 c-19 -37 -72 -82 -94 -81 -11 0 -8 4 8
10 34 14 66 45 81 80 6 16 14 28 16 25 2 -2 -2 -18 -11 -34z m279 -68 c-8 -13
-21 -24 -27 -24 -7 0 -2 9 10 20 16 15 22 34 24 68 l1 47 4 -43 c3 -29 -1 -52
-12 -68z m385 76 c-6 -11 -13 -20 -16 -20 -2 0 0 9 6 20 6 11 13 20 16 20 2 0
0 -9 -6 -20z m-846 -89 c-5 -6 -34 20 -34 30 0 5 8 1 18 -8 10 -10 17 -20 16
-22z m2546 30 c0 -12 -29 -41 -40 -41 -5 0 1 11 13 24 26 28 27 29 27 17z
m-2189 -18 c13 -16 12 -17 -3 -4 -10 7 -18 15 -18 17 0 8 8 3 21 -13z m277
-68 c-3 -3 -9 2 -12 12 -6 14 -5 15 5 6 7 -7 10 -15 7 -18z m250 -26 c-3 -33
-4 -33 -8 8 -3 23 -2 39 3 34 5 -5 7 -24 5 -42z m-359 -8 c0 -14 -1 -14 -6 -1
-3 8 -10 24 -15 35 -9 20 -9 20 6 1 9 -11 16 -27 15 -35z m990 15 c-3 -3 -11
5 -18 17 -13 21 -12 21 5 5 10 -10 16 -20 13 -22z m271 13 c7 -11 9 -23 6 -27
-3 -3 -6 0 -6 6 0 6 -7 18 -16 26 -8 9 -11 16 -5 16 6 0 15 -9 21 -21z m-1268
-79 c15 -46 28 -88 28 -92 0 -16 -30 -7 -40 12 -6 12 -21 20 -35 20 -14 0 -29
-8 -35 -20 -10 -20 -40 -28 -40 -12 0 7 37 122 55 170 3 8 12 12 22 10 11 -2
26 -32 45 -88z m89 75 c-1 -15 -24 -12 -29 3 -3 9 2 13 12 10 10 -1 17 -7 17
-13z m249 -57 c0 -40 3 -82 6 -94 5 -19 1 -21 -48 -20 -52 1 -53 2 -61 36 -13
53 5 90 43 90 27 0 30 3 30 30 0 20 5 30 15 30 12 0 15 -15 15 -72z m621 62
c21 -12 26 -40 6 -40 -7 0 -18 5 -25 12 -9 9 -15 9 -24 0 -9 -9 -4 -20 22 -47
30 -31 34 -33 46 -17 19 26 40 2 24 -28 -9 -16 -9 -25 -1 -33 6 -6 11 -14 11
-17 0 -9 -124 -9 -142 1 -22 12 -24 62 -3 79 9 8 12 22 8 41 -10 49 30 74 78
49z m277 -6 c24 -17 29 -43 10 -62 -9 -9 -9 -15 0 -24 38 -38 -9 -92 -75 -86
l-38 3 -3 79 c-2 44 -1 85 2 93 7 18 76 17 104 -3z m560 -15 c-3 -8 -7 -3 -11
10 -4 17 -3 21 5 13 5 -5 8 -16 6 -23z m-28 -4 c0 -18 5 -25 20 -25 11 0 20
-5 20 -11 0 -6 -9 -13 -20 -16 -14 -4 -20 -14 -20 -35 0 -21 6 -31 20 -35 26
-7 26 -33 1 -33 -37 0 -51 27 -51 99 0 37 3 71 7 74 13 14 23 6 23 -18z
m-1650 -6 c0 -11 -4 -18 -10 -14 -5 3 -7 12 -3 20 7 21 13 19 13 -6z m500 -14
c0 -12 -19 -12 -23 0 -4 9 -1 12 9 8 7 -3 14 -7 14 -8z m365 -21 c-10 -7 -23
-11 -28 -7 -6 3 -1 10 11 14 12 5 22 14 23 21 0 9 2 9 6 -1 3 -8 -2 -20 -12
-27z m434 -3 c-2 -6 -10 2 -17 17 -11 25 -11 25 4 10 9 -9 15 -21 13 -27z m76
29 c3 -5 1 -10 -4 -10 -6 0 -11 5 -11 10 0 6 2 10 4 10 3 0 8 -4 11 -10z m73
-61 l-3 -54 -5 62 c-3 34 -1 58 3 54 5 -4 7 -32 5 -62z m151 32 c-2 -6 -10 2
-17 17 -11 25 -11 25 4 10 9 -9 15 -21 13 -27z m181 18 c0 -14 -17 -10 -23 5
-4 10 -1 13 9 9 7 -3 14 -9 14 -14z m44 -105 c-26 -73 -52 -105 -84 -103 -9 0
-6 4 7 9 12 5 29 20 37 32 20 31 56 134 57 167 2 25 2 25 6 -2 3 -16 -8 -61
-23 -103z m-1849 93 c4 -13 5 -43 3 -68 -2 -32 -8 -45 -20 -47 -16 -3 -18 5
-18 61 0 35 3 67 7 70 12 13 23 7 28 -16z m115 4 c0 -5 -9 -11 -20 -14 -17 -4
-20 -14 -20 -57 0 -44 -3 -51 -17 -48 -15 3 -19 16 -21 65 l-3 62 33 3 c36 4
48 1 48 -11z m247 2 c2 -6 -5 -13 -17 -16 -17 -4 -20 -13 -20 -57 0 -43 -3
-51 -17 -48 -13 2 -18 16 -21 65 -4 61 -3 62 25 66 36 5 46 3 50 -10z m121 1
c16 -11 22 -25 22 -54 0 -46 -21 -70 -60 -70 -40 0 -65 37 -56 85 10 52 51 69
94 39z m151 2 c7 -8 12 -34 13 -57 0 -45 -18 -69 -54 -69 -12 0 -18 -8 -18
-24 0 -24 -16 -43 -26 -33 -3 3 -6 46 -7 96 -2 89 -2 90 23 94 49 8 58 7 69
-7z m41 -60 c0 -47 -19 -86 -42 -86 -4 0 2 10 13 21 18 18 21 30 17 80 -2 33
-1 54 4 47 4 -7 8 -35 8 -62z m612 57 c20 -18 24 -73 8 -104 -15 -28 -74 -26
-94 3 -47 67 27 155 86 101z m86 -41 c3 -44 6 -52 23 -52 16 0 19 7 19 49 0
28 5 53 11 56 15 10 16 7 21 -66 l5 -66 -51 1 -51 1 -9 42 c-10 48 -1 96 17
90 7 -2 13 -26 15 -55z m216 42 c19 -18 22 -109 5 -120 -16 -10 -27 14 -23 50
5 38 -8 61 -30 53 -12 -5 -16 -20 -16 -58 0 -75 -24 -60 -28 19 -3 56 -1 61
20 65 44 8 57 7 72 -9z m190 -22 c11 -40 22 -41 31 -2 7 34 22 47 36 33 10
-10 -33 -145 -53 -170 -10 -13 -58 -18 -58 -7 0 3 10 14 23 24 l22 19 -22 62
c-13 34 -20 66 -17 71 10 16 29 2 38 -30z m-1507 -54 c-2 -13 -4 -3 -4 22 0
25 2 35 4 23 2 -13 2 -33 0 -45z m670 -5 c-1 -49 -6 -68 -17 -71 -13 -4 -13
-3 -2 11 8 9 13 26 12 39 -3 37 0 88 5 88 2 0 4 -30 2 -67z m-900 -60 c9 -3
25 -1 35 6 16 10 19 10 16 -1 -3 -8 -21 -13 -51 -13 -29 0 -42 4 -36 10 5 5
10 34 11 65 l2 55 3 -58 c3 -41 9 -60 20 -64z m80 101 c-3 -3 -12 -4 -19 -1
-8 3 -5 6 6 6 11 1 17 -2 13 -5z m253 2 c0 -2 -7 -6 -15 -10 -8 -3 -15 -1 -15
4 0 6 7 10 15 10 8 0 15 -2 15 -4z m1176 -92 c-3 -8 -11 -14 -18 -14 -9 0 -9
3 0 12 7 7 13 32 14 58 l1 45 4 -44 c3 -24 2 -50 -1 -57z m184 86 c0 -5 -7 -7
-15 -4 -10 4 -15 0 -15 -12 0 -9 -3 -15 -6 -11 -11 10 4 37 21 37 8 0 15 -4
15 -10z m-1781 -45 c0 -5 -4 -3 -9 5 -5 8 -9 22 -9 30 0 16 17 -16 18 -35z
m571 -19 c0 -17 -9 -27 -29 -36 -17 -7 -36 -10 -43 -7 -8 3 -5 6 6 6 23 1 56
29 56 48 0 7 2 13 5 13 3 0 5 -11 5 -24z m1225 2 c-8 -27 -35 -58 -35 -41 0 7
5 15 10 18 6 3 10 15 10 26 0 10 5 19 11 19 6 0 8 -9 4 -22z m-980 -18 l20
-25 -22 19 c-13 11 -23 24 -23 29 0 6 1 8 3 6 1 -2 11 -15 22 -29z m570 0 c16
-21 16 -22 1 -9 -17 16 -19 16 -37 -2 -10 -10 -27 -19 -36 -18 -14 0 -13 2 4
9 12 5 28 18 35 29 7 11 12 19 13 18 0 -1 9 -13 20 -27z m310 0 c16 -19 16
-22 3 -11 -15 11 -21 11 -34 1 -13 -12 -14 -10 -3 13 7 15 13 26 13 25 1 -2
10 -14 21 -28z m-1770 10 c3 -6 -1 -7 -10 -4 -10 4 -22 -1 -31 -15 -8 -11 -19
-21 -24 -21 -5 0 1 11 13 25 23 26 42 32 52 15z m547 -30 c6 0 8 -3 5 -6 -8
-8 -57 23 -57 36 0 6 9 1 20 -10 11 -11 25 -20 32 -20z m788 1 c8 -8 3 -7 -13
3 -22 13 -32 15 -42 6 -8 -7 -20 -10 -27 -7 -9 4 -8 6 3 6 9 1 22 8 29 16 10
12 15 13 24 3 6 -7 18 -19 26 -27z m-1069 12 c13 -16 12 -17 -3 -4 -10 7 -18
15 -18 17 0 8 8 3 21 -13z m199 3 c0 -8 -9 -17 -19 -21 -25 -8 -73 4 -65 17 4
6 10 6 17 -1 16 -16 47 -13 53 4 8 19 14 19 14 1z m1154 -7 c4 -4 -4 -6 -18
-6 -21 0 -24 2 -15 13 7 8 15 11 18 7 3 -4 10 -11 15 -14z m-1713 -6 c13 -16
12 -17 -3 -4 -10 7 -18 15 -18 17 0 8 8 3 21 -13z m177 5 c8 -10 2 -13 -26
-15 -35 -2 -36 -2 -12 12 14 7 26 13 26 14 1 1 6 -5 12 -11z m262 -8 c-8 -5
-22 -9 -30 -9 -10 0 -8 3 5 9 27 12 43 12 25 0z m1200 0 c-8 -5 -19 -10 -25
-10 -5 0 -3 5 5 10 8 5 20 10 25 10 6 0 3 -5 -5 -10z m-582 -7 c-10 -2 -26 -2
-35 0 -10 3 -2 5 17 5 19 0 27 -2 18 -5z m-257 -46 c-10 -9 -11 -8 -5 6 3 10
9 15 12 12 3 -3 0 -11 -7 -18z m-46 3 c3 -5 1 -10 -4 -10 -6 0 -11 5 -11 10 0
6 2 10 4 10 3 0 8 -4 11 -10z"/>
<path d="M3558 4099 c-99 -52 -103 -205 -7 -255 68 -35 174 7 205 82 54 130
-72 240 -198 173z m110 -8 c8 -1 27 -14 43 -30 24 -24 29 -38 29 -76 0 -42 -5
-52 -39 -86 -33 -33 -45 -39 -83 -39 -97 0 -145 93 -92 177 18 28 79 60 108
57 11 -1 27 -3 34 -3z"/>
<path d="M3588 4069 c-32 -12 -68 -66 -68 -102 0 -34 43 -83 77 -90 36 -7 86
14 107 44 24 35 21 101 -7 127 -28 26 -72 35 -109 21z m89 -41 c31 -29 29 -64
-6 -99 -35 -34 -59 -36 -95 -8 -35 28 -35 72 0 104 33 31 70 32 101 3z"/>
<path d="M3270 3179 l0 -162 52 5 c40 4 57 11 75 32 21 25 23 37 23 132 0 98
-2 107 -25 129 -19 20 -34 25 -75 25 l-50 0 0 -161z m110 131 c8 -5 11 -10 5
-10 -5 0 -17 5 -25 10 -8 5 -10 10 -5 10 6 0 17 -5 25 -10z m-30 -93 c0 -2
-10 -12 -22 -23 l-23 -19 19 23 c18 21 26 27 26 19z m60 -61 c0 -2 -27 -22
-60 -44 -33 -23 -60 -38 -60 -34 1 14 120 92 120 78z"/>
<path d="M5210 3179 l0 -162 52 5 c40 4 57 11 75 32 21 25 23 37 23 132 0 98
-2 107 -25 129 -19 20 -34 25 -75 25 l-50 0 0 -161z m114 132 c4 -5 -3 -7 -14
-4 -23 6 -26 13 -6 13 8 0 17 -4 20 -9z"/>
<path d="M2282 3210 c-22 -9 -23 -14 -20 -102 l3 -93 36 -3 c51 -4 61 13 61
104 0 64 -3 80 -18 91 -20 15 -30 15 -62 3z m56 -22 c7 -7 12 -16 12 -22 0 -5
-6 -1 -14 9 -8 11 -20 16 -29 12 -12 -5 -17 -24 -20 -84 l-3 -78 -2 82 c-2 80
2 90 34 92 5 1 15 -4 22 -11z"/>
<path d="M2894 3199 c-13 -22 -14 -134 -1 -159 17 -35 69 -40 91 -8 18 25 22
112 6 152 -8 22 -16 26 -49 26 -22 0 -43 -5 -47 -11z m73 -15 c2 -6 -12 -23
-32 -38 -35 -27 -35 -27 -35 -5 0 42 55 78 67 43z m-8 -103 c-13 -11 -27 -20
-31 -21 -5 0 -8 -7 -8 -16 0 -8 -4 -12 -10 -9 -17 11 -11 21 27 48 42 30 58
28 22 -2z"/>
<path d="M3962 3198 c-19 -19 -16 -153 4 -172 18 -18 47 -20 75 -6 16 9 19 22
19 88 0 87 -8 102 -55 102 -17 0 -36 -5 -43 -12z m37 -11 c-9 -7 -18 -19 -22
-27 -4 -12 -6 -12 -6 2 -1 9 7 22 17 27 24 14 30 13 11 -2z"/>
<path d="M4363 3210 c-22 -9 -23 -15 -23 -105 l0 -95 39 0 c48 0 51 7 51 110
0 68 -3 81 -19 90 -22 11 -19 11 -48 0z m37 -14 c0 -2 -9 -6 -20 -9 -11 -3
-18 -1 -14 4 5 9 34 13 34 5z"/>
<path d="M2276 2635 c-10 -28 -7 -45 9 -45 16 0 20 27 6 48 -7 11 -10 10 -15
-3z"/>
<path d="M2600 2595 c0 -28 4 -35 20 -35 16 0 20 7 20 35 0 28 -4 35 -20 35
-16 0 -20 -7 -20 -35z m17 -7 c-3 -8 -6 -5 -6 6 -1 11 2 17 5 13 3 -3 4 -12 1
-19z"/>
<path d="M3231 2596 c-16 -19 -6 -36 19 -36 27 0 32 15 11 34 -16 14 -20 15
-30 2z"/>
<path d="M3502 2668 c2 -15 10 -23 23 -23 30 0 27 39 -3 43 -20 3 -23 0 -20
-20z"/>
<path d="M3500 2585 c0 -26 22 -33 49 -16 21 13 5 41 -24 41 -20 0 -25 -5 -25
-25z"/>
<path d="M2857 2633 c-4 -3 -7 -21 -7 -40 0 -26 4 -33 19 -33 19 0 30 29 23
63 -3 17 -23 23 -35 10z m23 -39 c0 -14 -4 -23 -9 -20 -7 5 -8 23 -2 44 4 12
11 -3 11 -24z"/>
<path d="M3007 2634 c-4 -4 -7 -23 -7 -41 0 -27 4 -34 18 -31 12 2 17 13 17
37 0 33 -13 49 -28 35z"/>
<path d="M3657 2633 c-4 -3 -7 -21 -7 -40 0 -26 4 -33 19 -33 12 0 20 9 23 24
7 37 -16 69 -35 49z m23 -40 c-1 -24 -2 -26 -11 -10 -5 9 -7 22 -4 27 10 17
15 11 15 -17z"/>
</g>
</svg>
